<mxfile host="www.draw.io" modified="2019-10-20T21:24:12.255Z" agent="Mozilla/5.0 (Windows NT 10.0; Win64; x64) AppleWebKit/537.36 (KHTML, like Gecko) Chrome/76.0.3809.132 Safari/537.36 OPR/63.0.3368.107" etag="zytB6QF41k0mHBlWpILf" version="12.1.3" type="github" pages="1">
  <diagram id="Lb_0midmeld865azdvVX" name="Page-1">
    <mxGraphModel dx="828" dy="1551" grid="1" gridSize="10" guides="1" tooltips="1" connect="1" arrows="1" fold="1" page="1" pageScale="1" pageWidth="850" pageHeight="1100" math="0" shadow="0">
      <root>
        <mxCell id="0"/>
        <mxCell id="1" parent="0"/>
        <mxCell id="x2IHKYKo0Ygv0OIkCN_u-1" value="INSTITUCIÓN" style="swimlane;fontStyle=0;childLayout=stackLayout;horizontal=1;startSize=26;fillColor=#e0e0e0;horizontalStack=0;resizeParent=1;resizeParentMax=0;resizeLast=0;collapsible=1;marginBottom=0;swimlaneFillColor=#ffffff;align=center;fontSize=14;" vertex="1" parent="1">
          <mxGeometry x="140" y="160" width="160" height="90" as="geometry"/>
        </mxCell>
        <mxCell id="x2IHKYKo0Ygv0OIkCN_u-2" value="#* id&#xa;* nombre&#xa;* tipo" style="text;strokeColor=none;fillColor=none;spacingLeft=4;spacingRight=4;overflow=hidden;rotatable=0;points=[[0,0.5],[1,0.5]];portConstraint=eastwest;fontSize=12;" vertex="1" parent="x2IHKYKo0Ygv0OIkCN_u-1">
          <mxGeometry y="26" width="160" height="64" as="geometry"/>
        </mxCell>
        <mxCell id="x2IHKYKo0Ygv0OIkCN_u-7" style="edgeStyle=orthogonalEdgeStyle;rounded=0;orthogonalLoop=1;jettySize=auto;html=1;exitX=1;exitY=0.5;exitDx=0;exitDy=0;endArrow=none;endFill=0;" edge="1" parent="1" source="x2IHKYKo0Ygv0OIkCN_u-2">
          <mxGeometry relative="1" as="geometry">
            <mxPoint x="340" y="218" as="targetPoint"/>
          </mxGeometry>
        </mxCell>
        <mxCell id="x2IHKYKo0Ygv0OIkCN_u-15" value="" style="edgeStyle=orthogonalEdgeStyle;rounded=0;orthogonalLoop=1;jettySize=auto;html=1;startArrow=none;startFill=0;endArrow=ERoneToMany;endFill=0;" edge="1" parent="1" source="x2IHKYKo0Ygv0OIkCN_u-9" target="x2IHKYKo0Ygv0OIkCN_u-13">
          <mxGeometry relative="1" as="geometry"/>
        </mxCell>
        <mxCell id="x2IHKYKo0Ygv0OIkCN_u-38" value="" style="edgeStyle=orthogonalEdgeStyle;rounded=0;orthogonalLoop=1;jettySize=auto;html=1;dashed=1;startArrow=none;startFill=0;endArrow=ERoneToMany;endFill=0;" edge="1" parent="1" source="x2IHKYKo0Ygv0OIkCN_u-9" target="x2IHKYKo0Ygv0OIkCN_u-36">
          <mxGeometry relative="1" as="geometry"/>
        </mxCell>
        <mxCell id="x2IHKYKo0Ygv0OIkCN_u-9" value="CLUB DE LECTURA" style="swimlane;fontStyle=0;childLayout=stackLayout;horizontal=1;startSize=26;fillColor=#e0e0e0;horizontalStack=0;resizeParent=1;resizeParentMax=0;resizeLast=0;collapsible=1;marginBottom=0;swimlaneFillColor=#ffffff;align=center;fontSize=14;" vertex="1" parent="1">
          <mxGeometry x="420" y="160" width="160" height="90" as="geometry"/>
        </mxCell>
        <mxCell id="x2IHKYKo0Ygv0OIkCN_u-10" value="#* id&#xa;* nombre" style="text;strokeColor=none;fillColor=none;spacingLeft=4;spacingRight=4;overflow=hidden;rotatable=0;points=[[0,0.5],[1,0.5]];portConstraint=eastwest;fontSize=12;" vertex="1" parent="x2IHKYKo0Ygv0OIkCN_u-9">
          <mxGeometry y="26" width="160" height="64" as="geometry"/>
        </mxCell>
        <mxCell id="x2IHKYKo0Ygv0OIkCN_u-36" value="ASOCIACIÓN" style="swimlane;fontStyle=0;childLayout=stackLayout;horizontal=1;startSize=26;fillColor=#e0e0e0;horizontalStack=0;resizeParent=1;resizeParentMax=0;resizeLast=0;collapsible=1;marginBottom=0;swimlaneFillColor=#ffffff;align=center;fontSize=14;" vertex="1" parent="1">
          <mxGeometry x="420" y="330" width="160" height="90" as="geometry"/>
        </mxCell>
        <mxCell id="x2IHKYKo0Ygv0OIkCN_u-17" value="" style="edgeStyle=orthogonalEdgeStyle;rounded=0;orthogonalLoop=1;jettySize=auto;html=1;startArrow=ERoneToMany;startFill=0;endArrow=none;endFill=0;" edge="1" parent="1" source="x2IHKYKo0Ygv0OIkCN_u-13" target="x2IHKYKo0Ygv0OIkCN_u-16">
          <mxGeometry relative="1" as="geometry"/>
        </mxCell>
        <mxCell id="x2IHKYKo0Ygv0OIkCN_u-13" value="C_I" style="swimlane;fontStyle=0;childLayout=stackLayout;horizontal=1;startSize=26;fillColor=#e0e0e0;horizontalStack=0;resizeParent=1;resizeParentMax=0;resizeLast=0;collapsible=1;marginBottom=0;swimlaneFillColor=#ffffff;align=center;fontSize=14;" vertex="1" parent="1">
          <mxGeometry x="420" y="-10" width="160" height="90" as="geometry"/>
        </mxCell>
        <mxCell id="x2IHKYKo0Ygv0OIkCN_u-16" value="Idioma" style="swimlane;fontStyle=0;childLayout=stackLayout;horizontal=1;startSize=26;fillColor=#e0e0e0;horizontalStack=0;resizeParent=1;resizeParentMax=0;resizeLast=0;collapsible=1;marginBottom=0;swimlaneFillColor=#ffffff;align=center;fontSize=14;" vertex="1" parent="1">
          <mxGeometry x="420" y="-180" width="160" height="90" as="geometry"/>
        </mxCell>
        <mxCell id="x2IHKYKo0Ygv0OIkCN_u-18" value="#* id&#xa;* nombre" style="text;strokeColor=none;fillColor=none;spacingLeft=4;spacingRight=4;overflow=hidden;rotatable=0;points=[[0,0.5],[1,0.5]];portConstraint=eastwest;fontSize=12;" vertex="1" parent="x2IHKYKo0Ygv0OIkCN_u-16">
          <mxGeometry y="26" width="160" height="64" as="geometry"/>
        </mxCell>
        <mxCell id="x2IHKYKo0Ygv0OIkCN_u-12" style="edgeStyle=orthogonalEdgeStyle;rounded=0;orthogonalLoop=1;jettySize=auto;html=1;exitX=0;exitY=0.5;exitDx=0;exitDy=0;endArrow=none;endFill=0;dashed=1;startArrow=ERmany;startFill=0;" edge="1" parent="1" source="x2IHKYKo0Ygv0OIkCN_u-10">
          <mxGeometry relative="1" as="geometry">
            <mxPoint x="340" y="218" as="targetPoint"/>
          </mxGeometry>
        </mxCell>
        <mxCell id="x2IHKYKo0Ygv0OIkCN_u-20" style="edgeStyle=orthogonalEdgeStyle;rounded=0;orthogonalLoop=1;jettySize=auto;html=1;exitX=1;exitY=0.5;exitDx=0;exitDy=0;startArrow=none;startFill=0;endArrow=none;endFill=0;dashed=1;" edge="1" parent="1" source="x2IHKYKo0Ygv0OIkCN_u-10">
          <mxGeometry relative="1" as="geometry">
            <mxPoint x="670" y="218" as="targetPoint"/>
          </mxGeometry>
        </mxCell>
        <mxCell id="x2IHKYKo0Ygv0OIkCN_u-21" value="MIEMBRO" style="swimlane;fontStyle=0;childLayout=stackLayout;horizontal=1;startSize=26;fillColor=#e0e0e0;horizontalStack=0;resizeParent=1;resizeParentMax=0;resizeLast=0;collapsible=1;marginBottom=0;swimlaneFillColor=#ffffff;align=center;fontSize=14;" vertex="1" parent="1">
          <mxGeometry x="750" y="145" width="160" height="120" as="geometry"/>
        </mxCell>
        <mxCell id="x2IHKYKo0Ygv0OIkCN_u-22" value="#* id&#xa;* primer nombre&#xa;o segundo nombre&#xa;* primer apellido&#xa;* segundo apellido" style="text;strokeColor=none;fillColor=none;spacingLeft=4;spacingRight=4;overflow=hidden;rotatable=0;points=[[0,0.5],[1,0.5]];portConstraint=eastwest;fontSize=12;" vertex="1" parent="x2IHKYKo0Ygv0OIkCN_u-21">
          <mxGeometry y="26" width="160" height="94" as="geometry"/>
        </mxCell>
        <mxCell id="x2IHKYKo0Ygv0OIkCN_u-24" style="edgeStyle=orthogonalEdgeStyle;rounded=0;orthogonalLoop=1;jettySize=auto;html=1;exitX=0;exitY=0.5;exitDx=0;exitDy=0;startArrow=ERmany;startFill=0;endArrow=none;endFill=0;" edge="1" parent="1" source="x2IHKYKo0Ygv0OIkCN_u-22">
          <mxGeometry relative="1" as="geometry">
            <mxPoint x="670" y="218" as="targetPoint"/>
          </mxGeometry>
        </mxCell>
        <mxCell id="x2IHKYKo0Ygv0OIkCN_u-30" style="edgeStyle=orthogonalEdgeStyle;rounded=0;orthogonalLoop=1;jettySize=auto;html=1;exitX=0.5;exitY=0;exitDx=0;exitDy=0;startArrow=ERmany;startFill=0;endArrow=none;endFill=0;" edge="1" parent="1" source="x2IHKYKo0Ygv0OIkCN_u-26">
          <mxGeometry relative="1" as="geometry">
            <mxPoint x="1030" y="100" as="targetPoint"/>
            <Array as="points">
              <mxPoint x="1200" y="100"/>
            </Array>
          </mxGeometry>
        </mxCell>
        <mxCell id="x2IHKYKo0Ygv0OIkCN_u-26" value="GRUPO DE LECTURA" style="swimlane;fontStyle=0;childLayout=stackLayout;horizontal=1;startSize=26;fillColor=#e0e0e0;horizontalStack=0;resizeParent=1;resizeParentMax=0;resizeLast=0;collapsible=1;marginBottom=0;swimlaneFillColor=#ffffff;align=center;fontSize=14;" vertex="1" parent="1">
          <mxGeometry x="1120" y="160" width="160" height="90" as="geometry"/>
        </mxCell>
        <mxCell id="x2IHKYKo0Ygv0OIkCN_u-27" value="#* id&#xa;* nombre" style="text;strokeColor=none;fillColor=none;spacingLeft=4;spacingRight=4;overflow=hidden;rotatable=0;points=[[0,0.5],[1,0.5]];portConstraint=eastwest;fontSize=12;" vertex="1" parent="x2IHKYKo0Ygv0OIkCN_u-26">
          <mxGeometry y="26" width="160" height="64" as="geometry"/>
        </mxCell>
        <mxCell id="x2IHKYKo0Ygv0OIkCN_u-29" style="edgeStyle=orthogonalEdgeStyle;rounded=0;orthogonalLoop=1;jettySize=auto;html=1;exitX=1;exitY=0.5;exitDx=0;exitDy=0;startArrow=none;startFill=0;endArrow=none;endFill=0;dashed=1;" edge="1" parent="1">
          <mxGeometry relative="1" as="geometry">
            <mxPoint x="1050" y="100" as="targetPoint"/>
            <mxPoint x="580" y="200" as="sourcePoint"/>
            <Array as="points">
              <mxPoint x="680" y="200"/>
              <mxPoint x="680" y="100"/>
              <mxPoint x="1060" y="100"/>
            </Array>
          </mxGeometry>
        </mxCell>
        <mxCell id="x2IHKYKo0Ygv0OIkCN_u-32" style="edgeStyle=orthogonalEdgeStyle;rounded=0;orthogonalLoop=1;jettySize=auto;html=1;startArrow=none;startFill=0;endArrow=none;endFill=0;dashed=1;" edge="1" parent="1" source="x2IHKYKo0Ygv0OIkCN_u-27">
          <mxGeometry relative="1" as="geometry">
            <mxPoint x="1370" y="218" as="targetPoint"/>
          </mxGeometry>
        </mxCell>
        <mxCell id="x2IHKYKo0Ygv0OIkCN_u-33" value="REUNIÓN" style="swimlane;fontStyle=0;childLayout=stackLayout;horizontal=1;startSize=26;fillColor=#e0e0e0;horizontalStack=0;resizeParent=1;resizeParentMax=0;resizeLast=0;collapsible=1;marginBottom=0;swimlaneFillColor=#ffffff;align=center;fontSize=14;" vertex="1" parent="1">
          <mxGeometry x="1450" y="160" width="160" height="90" as="geometry"/>
        </mxCell>
        <mxCell id="x2IHKYKo0Ygv0OIkCN_u-34" value="#* id" style="text;strokeColor=none;fillColor=none;spacingLeft=4;spacingRight=4;overflow=hidden;rotatable=0;points=[[0,0.5],[1,0.5]];portConstraint=eastwest;fontSize=12;" vertex="1" parent="x2IHKYKo0Ygv0OIkCN_u-33">
          <mxGeometry y="26" width="160" height="64" as="geometry"/>
        </mxCell>
        <mxCell id="x2IHKYKo0Ygv0OIkCN_u-35" style="edgeStyle=orthogonalEdgeStyle;rounded=0;orthogonalLoop=1;jettySize=auto;html=1;exitX=0;exitY=0.5;exitDx=0;exitDy=0;startArrow=ERmany;startFill=0;endArrow=none;endFill=0;" edge="1" parent="1" source="x2IHKYKo0Ygv0OIkCN_u-34">
          <mxGeometry relative="1" as="geometry">
            <mxPoint x="1370" y="218" as="targetPoint"/>
          </mxGeometry>
        </mxCell>
        <mxCell id="x2IHKYKo0Ygv0OIkCN_u-39" style="edgeStyle=orthogonalEdgeStyle;rounded=0;orthogonalLoop=1;jettySize=auto;html=1;exitX=0;exitY=0.5;exitDx=0;exitDy=0;endArrow=none;endFill=0;dashed=1;startArrow=ERoneToMany;startFill=0;entryX=-0.012;entryY=0.875;entryDx=0;entryDy=0;entryPerimeter=0;" edge="1" parent="1" source="x2IHKYKo0Ygv0OIkCN_u-36" target="x2IHKYKo0Ygv0OIkCN_u-10">
          <mxGeometry relative="1" as="geometry">
            <mxPoint x="390" y="240" as="targetPoint"/>
            <mxPoint x="420" y="230" as="sourcePoint"/>
            <Array as="points">
              <mxPoint x="360" y="375"/>
              <mxPoint x="360" y="240"/>
              <mxPoint x="418" y="240"/>
            </Array>
          </mxGeometry>
        </mxCell>
        <mxCell id="x2IHKYKo0Ygv0OIkCN_u-48" value="" style="edgeStyle=orthogonalEdgeStyle;rounded=0;orthogonalLoop=1;jettySize=auto;html=1;dashed=1;startArrow=none;startFill=0;endArrow=none;endFill=0;" edge="1" parent="1" source="x2IHKYKo0Ygv0OIkCN_u-42">
          <mxGeometry relative="1" as="geometry">
            <mxPoint x="500" y="630" as="targetPoint"/>
          </mxGeometry>
        </mxCell>
        <mxCell id="x2IHKYKo0Ygv0OIkCN_u-42" value="MONEDA" style="swimlane;fontStyle=0;childLayout=stackLayout;horizontal=1;startSize=26;fillColor=#e0e0e0;horizontalStack=0;resizeParent=1;resizeParentMax=0;resizeLast=0;collapsible=1;marginBottom=0;swimlaneFillColor=#ffffff;align=center;fontSize=14;" vertex="1" parent="1">
          <mxGeometry x="420" y="480" width="160" height="90" as="geometry"/>
        </mxCell>
        <mxCell id="x2IHKYKo0Ygv0OIkCN_u-43" value="#* id&#xa;* nombre" style="text;strokeColor=none;fillColor=none;spacingLeft=4;spacingRight=4;overflow=hidden;rotatable=0;points=[[0,0.5],[1,0.5]];portConstraint=eastwest;fontSize=12;" vertex="1" parent="x2IHKYKo0Ygv0OIkCN_u-42">
          <mxGeometry y="26" width="160" height="64" as="geometry"/>
        </mxCell>
        <mxCell id="x2IHKYKo0Ygv0OIkCN_u-51" value="" style="edgeStyle=orthogonalEdgeStyle;rounded=0;orthogonalLoop=1;jettySize=auto;html=1;startArrow=ERmany;startFill=0;endArrow=none;endFill=0;" edge="1" parent="1" source="x2IHKYKo0Ygv0OIkCN_u-44">
          <mxGeometry relative="1" as="geometry">
            <mxPoint x="500" y="630" as="targetPoint"/>
          </mxGeometry>
        </mxCell>
        <mxCell id="x2IHKYKo0Ygv0OIkCN_u-54" value="" style="edgeStyle=orthogonalEdgeStyle;rounded=0;orthogonalLoop=1;jettySize=auto;html=1;startArrow=none;startFill=0;endArrow=ERmany;endFill=0;" edge="1" parent="1" source="x2IHKYKo0Ygv0OIkCN_u-44" target="x2IHKYKo0Ygv0OIkCN_u-52">
          <mxGeometry relative="1" as="geometry"/>
        </mxCell>
        <mxCell id="x2IHKYKo0Ygv0OIkCN_u-44" value="PAÍS" style="swimlane;fontStyle=0;childLayout=stackLayout;horizontal=1;startSize=26;fillColor=#e0e0e0;horizontalStack=0;resizeParent=1;resizeParentMax=0;resizeLast=0;collapsible=1;marginBottom=0;swimlaneFillColor=#ffffff;align=center;fontSize=14;" vertex="1" parent="1">
          <mxGeometry x="420" y="670" width="160" height="90" as="geometry"/>
        </mxCell>
        <mxCell id="x2IHKYKo0Ygv0OIkCN_u-45" value="#* id&#xa;* nombre" style="text;strokeColor=none;fillColor=none;spacingLeft=4;spacingRight=4;overflow=hidden;rotatable=0;points=[[0,0.5],[1,0.5]];portConstraint=eastwest;fontSize=12;" vertex="1" parent="x2IHKYKo0Ygv0OIkCN_u-44">
          <mxGeometry y="26" width="160" height="64" as="geometry"/>
        </mxCell>
        <mxCell id="x2IHKYKo0Ygv0OIkCN_u-57" value="" style="edgeStyle=orthogonalEdgeStyle;rounded=0;orthogonalLoop=1;jettySize=auto;html=1;startArrow=none;startFill=0;endArrow=ERmany;endFill=0;" edge="1" parent="1" source="x2IHKYKo0Ygv0OIkCN_u-52" target="x2IHKYKo0Ygv0OIkCN_u-55">
          <mxGeometry relative="1" as="geometry"/>
        </mxCell>
        <mxCell id="x2IHKYKo0Ygv0OIkCN_u-52" value="CIUDAD" style="swimlane;fontStyle=0;childLayout=stackLayout;horizontal=1;startSize=26;fillColor=#e0e0e0;horizontalStack=0;resizeParent=1;resizeParentMax=0;resizeLast=0;collapsible=1;marginBottom=0;swimlaneFillColor=#ffffff;align=center;fontSize=14;" vertex="1" parent="1">
          <mxGeometry x="420" y="840" width="160" height="90" as="geometry"/>
        </mxCell>
        <mxCell id="x2IHKYKo0Ygv0OIkCN_u-53" value="#* id&#xa;* nombre" style="text;strokeColor=none;fillColor=none;spacingLeft=4;spacingRight=4;overflow=hidden;rotatable=0;points=[[0,0.5],[1,0.5]];portConstraint=eastwest;fontSize=12;" vertex="1" parent="x2IHKYKo0Ygv0OIkCN_u-52">
          <mxGeometry y="26" width="160" height="64" as="geometry"/>
        </mxCell>
        <mxCell id="x2IHKYKo0Ygv0OIkCN_u-60" value="" style="edgeStyle=orthogonalEdgeStyle;rounded=0;orthogonalLoop=1;jettySize=auto;html=1;startArrow=none;startFill=0;endArrow=ERmany;endFill=0;" edge="1" parent="1" source="x2IHKYKo0Ygv0OIkCN_u-55" target="x2IHKYKo0Ygv0OIkCN_u-58">
          <mxGeometry relative="1" as="geometry"/>
        </mxCell>
        <mxCell id="x2IHKYKo0Ygv0OIkCN_u-55" value="CIUDAD" style="swimlane;fontStyle=0;childLayout=stackLayout;horizontal=1;startSize=26;fillColor=#e0e0e0;horizontalStack=0;resizeParent=1;resizeParentMax=0;resizeLast=0;collapsible=1;marginBottom=0;swimlaneFillColor=#ffffff;align=center;fontSize=14;" vertex="1" parent="1">
          <mxGeometry x="420" y="1010" width="160" height="90" as="geometry"/>
        </mxCell>
        <mxCell id="x2IHKYKo0Ygv0OIkCN_u-56" value="#* id&#xa;* nombre" style="text;strokeColor=none;fillColor=none;spacingLeft=4;spacingRight=4;overflow=hidden;rotatable=0;points=[[0,0.5],[1,0.5]];portConstraint=eastwest;fontSize=12;" vertex="1" parent="x2IHKYKo0Ygv0OIkCN_u-55">
          <mxGeometry y="26" width="160" height="64" as="geometry"/>
        </mxCell>
        <mxCell id="x2IHKYKo0Ygv0OIkCN_u-63" value="" style="edgeStyle=orthogonalEdgeStyle;rounded=0;orthogonalLoop=1;jettySize=auto;html=1;startArrow=none;startFill=0;endArrow=ERmany;endFill=0;" edge="1" parent="1" source="x2IHKYKo0Ygv0OIkCN_u-58" target="x2IHKYKo0Ygv0OIkCN_u-61">
          <mxGeometry relative="1" as="geometry"/>
        </mxCell>
        <mxCell id="x2IHKYKo0Ygv0OIkCN_u-58" value="URBANIZACIÓN" style="swimlane;fontStyle=0;childLayout=stackLayout;horizontal=1;startSize=26;fillColor=#e0e0e0;horizontalStack=0;resizeParent=1;resizeParentMax=0;resizeLast=0;collapsible=1;marginBottom=0;swimlaneFillColor=#ffffff;align=center;fontSize=14;" vertex="1" parent="1">
          <mxGeometry x="420" y="1180" width="160" height="90" as="geometry"/>
        </mxCell>
        <mxCell id="x2IHKYKo0Ygv0OIkCN_u-59" value="#* id&#xa;* nombre" style="text;strokeColor=none;fillColor=none;spacingLeft=4;spacingRight=4;overflow=hidden;rotatable=0;points=[[0,0.5],[1,0.5]];portConstraint=eastwest;fontSize=12;" vertex="1" parent="x2IHKYKo0Ygv0OIkCN_u-58">
          <mxGeometry y="26" width="160" height="64" as="geometry"/>
        </mxCell>
        <mxCell id="x2IHKYKo0Ygv0OIkCN_u-68" style="edgeStyle=orthogonalEdgeStyle;rounded=0;orthogonalLoop=1;jettySize=auto;html=1;startArrow=none;startFill=0;endArrow=none;endFill=0;dashed=1;" edge="1" parent="1" source="x2IHKYKo0Ygv0OIkCN_u-61">
          <mxGeometry relative="1" as="geometry">
            <mxPoint x="660" y="1395" as="targetPoint"/>
          </mxGeometry>
        </mxCell>
        <mxCell id="x2IHKYKo0Ygv0OIkCN_u-61" value="CALLE" style="swimlane;fontStyle=0;childLayout=stackLayout;horizontal=1;startSize=26;fillColor=#e0e0e0;horizontalStack=0;resizeParent=1;resizeParentMax=0;resizeLast=0;collapsible=1;marginBottom=0;swimlaneFillColor=#ffffff;align=center;fontSize=14;" vertex="1" parent="1">
          <mxGeometry x="420" y="1350" width="160" height="90" as="geometry"/>
        </mxCell>
        <mxCell id="x2IHKYKo0Ygv0OIkCN_u-62" value="#* id&#xa;* nombre&#xa;* código postal" style="text;strokeColor=none;fillColor=none;spacingLeft=4;spacingRight=4;overflow=hidden;rotatable=0;points=[[0,0.5],[1,0.5]];portConstraint=eastwest;fontSize=12;" vertex="1" parent="x2IHKYKo0Ygv0OIkCN_u-61">
          <mxGeometry y="26" width="160" height="64" as="geometry"/>
        </mxCell>
        <mxCell id="x2IHKYKo0Ygv0OIkCN_u-69" style="edgeStyle=orthogonalEdgeStyle;rounded=0;orthogonalLoop=1;jettySize=auto;html=1;startArrow=ERmany;startFill=0;endArrow=none;endFill=0;" edge="1" parent="1" source="x2IHKYKo0Ygv0OIkCN_u-65">
          <mxGeometry relative="1" as="geometry">
            <mxPoint x="660" y="1395" as="targetPoint"/>
          </mxGeometry>
        </mxCell>
        <mxCell id="x2IHKYKo0Ygv0OIkCN_u-65" value="ESPACIO" style="swimlane;fontStyle=0;childLayout=stackLayout;horizontal=1;startSize=26;fillColor=#e0e0e0;horizontalStack=0;resizeParent=1;resizeParentMax=0;resizeLast=0;collapsible=1;marginBottom=0;swimlaneFillColor=#ffffff;align=center;fontSize=14;" vertex="1" parent="1">
          <mxGeometry x="740" y="1335" width="160" height="120" as="geometry"/>
        </mxCell>
        <mxCell id="x2IHKYKo0Ygv0OIkCN_u-66" value="#* id&#xa;* nombre&#xa;* tipo&#xa;* capacidad&#xa;* número" style="text;strokeColor=none;fillColor=none;spacingLeft=4;spacingRight=4;overflow=hidden;rotatable=0;points=[[0,0.5],[1,0.5]];portConstraint=eastwest;fontSize=12;" vertex="1" parent="x2IHKYKo0Ygv0OIkCN_u-65">
          <mxGeometry y="26" width="160" height="94" as="geometry"/>
        </mxCell>
      </root>
    </mxGraphModel>
  </diagram>
</mxfile>
